<?xml version="1.0" encoding="utf-8"?>
<!-- Generator: Adobe Illustrator 25.4.1, SVG Export Plug-In . SVG Version: 6.00 Build 0)  -->
<svg version="1.1" id="Layer_1" xmlns="http://www.w3.org/2000/svg" xmlns:xlink="http://www.w3.org/1999/xlink" x="0px" y="0px"
	 viewBox="0 0 313.6 80.7" style="enable-background:new 0 0 313.6 80.7;" xml:space="preserve">
<style type="text/css">
	.st0{fill:#3AAC57;}
	.st1{fill:#0D3349;}
</style>
<g>
	<g>
		<g id="footer_2_" transform="translate(-189.000000, -1096.000000)">
			<g transform="translate(0.000000, 988.000000)">
				<g id="Group-14_2_" transform="translate(189.000000, 108.000000)">
					<g id="chia-logo-_x28_1_x29__2_">
						<g id="Group_2_">
							<path id="Shape_8_" class="st0" d="M89.8,21.6c-5,0-10.1,1.2-11.4,3.4c0,0,0,0-0.1,0.1V9.2H65v25.3l0,0
								c1.3,0.6,2.7,1.3,4.1,2.1c0.5,0.3,0.9,0.5,1.2,0.7c0.2,0.1,0.4,0.2,0.6,0.3c0,0-7.6,11.9-18,14.4c-6.2,1.5-13.4-0.3-14.9-6.5
								c-0.1-0.3-0.1-0.5-0.1-0.8c1-0.6,2-1.1,3-1.6c2.5-1.1,4.5-1.9,5.2-2.2c0.1,0,0.1,0,0.2-0.1l0,0l0,0c6.1-2.2,11.2-3,11.2-3
								c-4.6-0.4-8.6-0.1-11.9,0.6l0,0c0,0,0,0-0.1,0c-3,0.6-5.5,1.5-7.4,2.4c1.1-4.5,4.9-8.3,9.5-9.4c0.4-0.1,0.8-0.2,1.2-0.2
								c0.1,0,0.2,0,0.3,0c0.3,0,0.6-0.1,1-0.1c0.1,0,0.2,0,0.3,0c0.4,0,0.8,0,1.2,0c0.1,0,0.2,0,0.2,0c0.3,0,0.7,0,1,0
								c0.1,0,0.2,0,0.4,0c0.2,0,0.2,0,0.4,0c2,0.2,4.4,0.7,7.1,1.7v-8.7c-1.3-0.4-2.7-0.8-4.1-1.1c-3.8-1-10.2-2.1-17.3-0.3
								c-11.5,2.6-14.8,11-14.8,21.3c0,1.3,0.1,2.5,0.3,3.7c-2.5,1.6-4.9,3.5-7.1,5.7c0,0,3.3-1.5,7.6-3.4
								c2.9,9.9,13,13.2,20.6,13.2c7.9,0,13-2.3,19.1-6V62h13.3V38.1c0,0,0-0.1,0.1-0.1v-0.4c1.3-3.4,3.4-4.3,5.8-4.3
								c3.2,0,5.2,2.2,5.2,5.8v22.7h13.3V35.3C102.7,27,97.5,21.6,89.8,21.6"/>
							<polygon id="Rectangle-path_4_" class="st0" points="107.6,23.9 120.6,23.9 120.6,61.9 107.6,61.9 							"/>
							<path id="Shape_7_" class="st0" d="M114.1,5.9c-4,0-6.9,2.9-6.9,6.9s2.8,6.9,6.9,6.9c4.1,0,6.9-2.8,6.9-6.9
								S118.1,5.9,114.1,5.9"/>
							<path id="Shape_6_" class="st0" d="M165,40.3L165,40.3V23.4h-13.4l-0.1,2.4c-12.9-8.3-21.1,0.2-21.1,0.2
								c-3.9,3.6-6.2,9.3-6.2,16.4c0,12.7,7.6,20.2,17.5,20.2c3.7,0,7.1-0.8,10.1-4.9c0.3,0.9,1.1,3.3,1.6,4.1h13.9
								C164.9,57.9,164.9,44.3,165,40.3 M144.8,51.7c-4.3,0-7.4-3.8-7.4-9.1s3.1-9.1,7.4-9.1c3,0,5.4,1.8,6.6,4.8v8.6
								C150.2,49.9,147.8,51.7,144.8,51.7"/>
						</g>
					</g>
				</g>
			</g>
		</g>
		<g>
			<g>
				<path id="Shape_5_" class="st0" d="M197,5.8c-4,0-6.9,2.9-6.9,6.9s2.8,6.9,6.9,6.9s6.9-2.8,6.9-6.9S201,5.8,197,5.8"/>
				<polygon id="Rectangle-path_3_" class="st0" points="190.5,23.8 203.5,23.8 203.5,61.8 190.5,61.8 				"/>
			</g>
			<path class="st0" d="M184.4,10.3v51.5h-12.9V10.3H184.4z"/>
			<path class="st0" d="M229.7,35.4c-0.2-1.7-1.7-3.4-4.1-3.4c-2.6,0-4.2,1-4.2,2.7c0,1.8,2.4,2.7,4.8,3.2
				c11.9,2.9,17.5,5.2,17.2,12.2c-0.3,8-6.2,12.3-17.8,12.3c-11.2,0-17.6-4.4-18-12.1l12.9-0.9c0.3,2.6,2.4,4.2,5.1,4.2
				c2.8,0,4.8-1.1,4.8-3c0-2.2-3.6-3.7-7.3-4.5c-10.8-2.6-14.7-4.3-14.7-11.6c0-7.4,6.5-11,17.4-11c10.1,0,16.3,3.9,16.6,11.4
				L229.7,35.4z"/>
		</g>
	</g>
	<path class="st0" d="M282.6,26.1c0,0-8.1-8.4-20.9-0.4v-2.3h-14.2v51.5h14.2V58.3c2.9,3.6,6.1,4.4,9.6,4.4
		c9.9,0,17.5-7.5,17.5-20.2C288.8,35.3,286.5,29.7,282.6,26.1z M268.2,51.7c-3,0-5.3-1.8-6.5-4.7v-8.9c1.2-2.8,3.6-4.7,6.5-4.7
		c4.3,0,7.4,3.8,7.4,9.1C275.6,48,272.5,51.7,268.2,51.7z"/>
</g>
<g>
	<path class="st1" d="M20.2,2.5c0,0.7-0.6,2.2-1.7,4.5c-1.1,2.3-1.9,4.1-2.5,5.5c-2.2,5.2-3.8,10-4.8,14.4
		c-0.9,4.3-1.4,8.9-1.4,13.5c0,4.3,0.4,8.5,1.2,12.5c0.8,4,2,8.1,3.6,12.1c0.8,2.2,2,4.7,3.4,7.7c1.4,2.9,2.1,4.8,2.1,5.5
		s-0.2,1.3-0.5,1.7c-0.3,0.4-0.7,0.6-1.3,0.6c-1,0-2.2-0.5-3.4-1.6c-1.3-1.1-2.7-2.8-4.3-5.2c-3.4-5.1-6-10.4-7.8-15.9
		c-1.7-5.5-2.6-11.3-2.6-17.4c0-5.6,0.7-10.9,2.1-15.9c1.4-5.1,3.6-10,6.5-14.7c2-3.2,3.8-5.5,5.4-7.1s3-2.4,4.3-2.4
		c0.5,0,0.9,0.2,1.3,0.6C20,1.3,20.2,1.9,20.2,2.5z"/>
</g>
<g>
	<path class="st1" d="M293.3,78c0-0.7,0.6-2.1,1.7-4.4s2-4.1,2.6-5.4c2.2-5.3,3.8-10.1,4.7-14.4c1-4.4,1.4-8.9,1.4-13.5
		c0-4.2-0.4-8.4-1.2-12.4c-0.8-4.1-2-8.1-3.7-12.2c-0.9-2.2-2-4.7-3.4-7.7c-1.4-2.9-2.1-4.8-2.1-5.5s0.2-1.2,0.5-1.6
		s0.8-0.6,1.3-0.6c1.1,0,2.2,0.5,3.5,1.6c1.2,1.1,2.7,2.8,4.3,5.1c3.5,5,6.2,10.3,7.9,15.9c1.7,5.6,2.6,11.4,2.6,17.5
		c0,5.6-0.7,10.9-2.2,16s-3.7,10-6.6,14.7c-2,3.2-3.8,5.6-5.4,7.1c-1.5,1.5-2.9,2.3-4.2,2.3c-0.5,0-1-0.2-1.3-0.6
		C293.4,79.3,293.3,78.7,293.3,78z"/>
</g>
</svg>
