<?xml version="1.0" encoding="utf-8"?>
<!-- Generator: Adobe Illustrator 25.4.1, SVG Export Plug-In . SVG Version: 6.00 Build 0)  -->
<svg version="1.1" id="Layer_1" xmlns:svg="http://www.w3.org/2000/svg"
	 xmlns="http://www.w3.org/2000/svg" xmlns:xlink="http://www.w3.org/1999/xlink" x="0px" y="0px" viewBox="0 0 300 185"
	 style="enable-background:new 0 0 300 185;" xml:space="preserve">
<style type="text/css">
	.st0{fill-rule:evenodd;clip-rule:evenodd;fill:#3BAC5C;}
	.st1{fill:#0D3349;}
</style>
<g>
	<path id="path0_1_" class="st0" d="M153.9,49.2c-0.5,0-2,0.2-3.4,0.2c-2.5,0.2-6.3,0.7-6.8,0.9c-0.2,0-0.9,0.2-1.6,0.2
		c-5,0.7-10.8,2.7-14.2,4.7c-0.7,0.5-1.4,0.7-1.6,0.7c-0.7,0.2-5.9,3.8-7.7,5.4c-14,11.5-21.2,29.3-18.3,44c0.5,1.8,0.5,1.8,1.8,0.9
		c2-1.6,3.8-2.7,6.3-4.1c1.4-0.9,7.7-3.8,8.1-3.8c0,0,0.5-0.2,1.1-0.5c5.6-2.5,21.6-8.1,29.8-10.1c0.2,0,1.8-0.5,3.2-0.9
		c7.7-2,9-2.5,9-2c0,0-0.5,0.2-0.9,0.5c-2.7,0.9-9.9,3.8-10.1,4.1c0,0-0.2,0.2-0.5,0.2s-0.7,0.2-1.4,0.5s-1.4,0.5-1.4,0.5
		s-0.7,0.2-1.6,0.7c-0.7,0.5-1.4,0.7-1.6,0.7c0,0-0.9,0.2-1.6,0.7c-0.9,0.5-1.6,0.7-1.8,0.7c-0.7,0-18.7,9.5-24.4,12.9
		c-1.4,0.7-2.5,1.4-2.5,1.4s-1.8,1.1-7.4,4.7c-6.3,4.1-16.7,11.5-23.2,16.5c-0.7,0.7-1.6,1.4-2,1.6c-5.6,4.3-6.3,5.2-3.2,3.4
		c7.2-3.8,15.1-7.4,20.7-9.7c3.6-1.4,7.2-2.5,9.7-2.7l1.1-0.2l2.7,2.7c6.8,6.8,14,10.1,24.8,11.7c2.5,0.5,10.8,0.2,12.6,0
		c0.7,0,1.8-0.2,2.7-0.5c0.9-0.2,2-0.5,2.3-0.5c0.2,0,1.1-0.2,1.8-0.5c12.4-3.2,23-10.8,32.5-23.5c0.2-0.2,1.1-1.4,1.8-2.5
		c0.9-1.1,1.6-2.3,1.8-2.5c0.2-0.2,0.7-1.1,1.1-1.6c5-7,11.7-18.3,16.2-26.6c0.5-0.9,1.4-2.5,1.8-3.2c0.5-0.9,2-3.8,3.4-6.8
		s2.7-5.2,2.7-5.4c0.5-0.7,0.2-0.9-1.6-1.6c-0.2,0-1.6-0.5-3.2-1.1c-1.6-0.5-3.2-1.1-3.8-1.1c-2.5-0.9-6.5-2-11.5-3.4
		c-4.3-1.1-5.4-1.4-7-1.8c-0.9-0.2-1.8-0.5-2-0.5c-0.2,0-0.9-0.2-1.6-0.5c-1.8-0.2-2.5-0.5-4.1-0.9c-6.1-1.4-11.3-1.8-20.1-1.8
		C157.8,49.2,154.2,49.2,153.9,49.2"/>
	<g>
		<path class="st1" d="M71.4,7c0,1.6-1.4,5-3.8,10.1s-4.3,9.2-5.6,12.4c-5,11.7-8.6,22.6-10.8,32.5c-2,9.7-3.2,20.1-3.2,30.4
			c0,9.7,0.9,19.2,2.7,28.2s4.5,18.3,8.1,27.3c1.8,5,4.5,10.6,7.7,17.4c3.2,6.5,4.7,10.8,4.7,12.4s-0.5,2.9-1.1,3.8
			c-0.7,0.9-1.6,1.4-2.9,1.4c-2.3,0-5-1.1-7.7-3.6c-2.9-2.5-6.1-6.3-9.7-11.7c-7.7-11.5-13.5-23.5-17.6-35.9
			c-3.8-12.4-5.9-25.5-5.9-39.2c0-12.6,1.6-24.6,4.7-35.9c3.2-11.5,8.1-22.6,14.7-33.1c4.5-7.2,8.6-12.4,12.2-16
			c3.6-3.6,6.8-5.4,9.7-5.4c1.1,0,2,0.5,2.9,1.4C71,4.3,71.4,5.7,71.4,7z"/>
	</g>
	<g>
		<path class="st1" d="M228.4,177.5c0-1.6,1.4-4.7,3.8-9.9c2.5-5.2,4.5-9.2,5.9-12.2c5-12,8.6-22.8,10.6-32.5
			c2.3-9.9,3.2-20.1,3.2-30.4c0-9.5-0.9-18.9-2.7-28c-1.8-9.2-4.5-18.3-8.3-27.5c-2-5-4.5-10.6-7.7-17.4c-3.2-6.5-4.7-10.8-4.7-12.4
			s0.5-2.7,1.1-3.6c0.7-1.1,1.6-1.6,2.9-1.6c2.5,0,5,1.1,7.9,3.6c2.7,2.5,6.1,6.3,9.7,11.5c7.9,11.3,14,23.2,17.8,35.9
			s5.9,25.7,5.9,39.5c0,12.6-1.6,24.6-5,36.1s-8.3,22.6-14.9,33.1c-4.5,7.2-8.6,12.6-12.2,16c-3.4,3.4-6.5,5.2-9.5,5.2
			c-1.1,0-2.3-0.5-2.9-1.4C228.6,180.4,228.4,179.1,228.4,177.5z"/>
	</g>
</g>
</svg>
