<?xml version="1.0" encoding="UTF-8"?>
<svg id="Layer_1" data-name="Layer 1" xmlns="http://www.w3.org/2000/svg" viewBox="0 0 247.5 180.9">
  <defs>
    <style>
      .cls-1 {
        fill: #0d3349;
      }

      .cls-2 {
        fill: #5ece71;
        fill-rule: evenodd;
      }
    </style>
  </defs>
  <path id="path0" class="cls-2" d="m127.6,47.2c-.5,0-2,.2-3.4.2-2.5.2-6.3.7-6.8.9-.2,0-.9.2-1.6.2-5,.7-10.8,2.7-14.2,4.7-.7.5-1.4.7-1.6.7-.7.2-5.9,3.8-7.7,5.4-14,11.5-21.2,29.3-18.3,44q.5,1.8,1.8.9c2-1.6,3.8-2.7,6.3-4.1,1.4-.9,7.7-3.8,8.1-3.8,0,0,.5-.2,1.1-.5,5.6-2.5,21.6-8.1,29.8-10.1.2,0,1.8-.5,3.2-.9,7.7-2,9-2.5,9-2,0,0-.5.2-.9.5-2.7.9-9.9,3.8-10.1,4.1,0,0-.2.2-.5.2s-.7.2-1.4.5-1.4.5-1.4.5c0,0-.7.2-1.6.7-.7.5-1.4.7-1.6.7,0,0-.9.2-1.6.7-.9.5-1.6.7-1.8.7-.7,0-18.7,9.5-24.4,12.9-1.4.7-2.5,1.4-2.5,1.4,0,0-1.8,1.1-7.4,4.7-6.3,4.1-16.7,11.5-23.2,16.5-.7.7-1.6,1.4-2,1.6-5.6,4.3-6.3,5.2-3.2,3.4,7.2-3.8,15.1-7.4,20.7-9.7,3.6-1.4,7.2-2.5,9.7-2.7l1.1-.2,2.7,2.7c6.8,6.8,14,10.1,24.8,11.7,2.5.5,10.8.2,12.6,0,.7,0,1.8-.2,2.7-.5.9-.2,2-.5,2.3-.5.2,0,1.1-.2,1.8-.5,12.4-3.2,23-10.8,32.5-23.5.2-.2,1.1-1.4,1.8-2.5.9-1.1,1.6-2.3,1.8-2.5s.7-1.1,1.1-1.6c5-7,11.7-18.3,16.2-26.6.5-.9,1.4-2.5,1.8-3.2.5-.9,2-3.8,3.4-6.8s2.7-5.2,2.7-5.4c.5-.7.2-.9-1.6-1.6-.2,0-1.6-.5-3.2-1.1-1.6-.5-3.2-1.1-3.8-1.1-2.5-.9-6.5-2-11.5-3.4-4.3-1.1-5.4-1.4-7-1.8-.9-.2-1.8-.5-2-.5s-.9-.2-1.6-.5c-1.8-.2-2.5-.5-4.1-.9-6.1-1.4-11.3-1.8-20.1-1.8-3-.2-6.6-.2-6.9-.2"/>
  <path class="cls-1" d="m45.1,5c0,1.6-1.4,5-3.8,10.1s-4.3,9.2-5.6,12.4c-5,11.7-8.6,22.6-10.8,32.5-2,9.7-3.2,20.1-3.2,30.4,0,9.7.9,19.2,2.7,28.2s4.5,18.3,8.1,27.3c1.8,5,4.5,10.6,7.7,17.4,3.2,6.5,4.7,10.8,4.7,12.4s-.5,2.9-1.1,3.8c-.7.9-1.6,1.4-2.9,1.4-2.3,0-5-1.1-7.7-3.6-2.9-2.5-6.1-6.3-9.7-11.7-7.7-11.5-13.5-23.5-17.6-35.9-3.8-12.4-5.9-25.5-5.9-39.2,0-12.6,1.6-24.6,4.7-35.9,3.2-11.5,8.1-22.6,14.7-33.1,4.5-7.2,8.6-12.4,12.2-16C35.2,1.9,38.4.1,41.3.1c1.1,0,2,.5,2.9,1.4.5.8.9,2.2.9,3.5Z"/>
  <path class="cls-1" d="m202.1,175.5c0-1.6,1.4-4.7,3.8-9.9,2.5-5.2,4.5-9.2,5.9-12.2,5-12,8.6-22.8,10.6-32.5,2.3-9.9,3.2-20.1,3.2-30.4,0-9.5-.9-18.9-2.7-28-1.8-9.2-4.5-18.3-8.3-27.5-2-5-4.5-10.6-7.7-17.4-3.2-6.5-4.7-10.8-4.7-12.4s.5-2.7,1.1-3.6c.7-1.1,1.6-1.6,2.9-1.6,2.5,0,5,1.1,7.9,3.6,2.7,2.5,6.1,6.3,9.7,11.5,7.9,11.3,14,23.2,17.8,35.9s5.9,25.7,5.9,39.5c0,12.6-1.6,24.6-5,36.1s-8.3,22.6-14.9,33.1c-4.5,7.2-8.6,12.6-12.2,16-3.4,3.4-6.5,5.2-9.5,5.2-1.1,0-2.3-.5-2.9-1.4-.7-1.1-.9-2.4-.9-4Z"/>
</svg>