<?xml version="1.0" encoding="utf-8"?>
<!-- Generator: Adobe Illustrator 25.4.1, SVG Export Plug-In . SVG Version: 6.00 Build 0)  -->
<svg version="1.1" id="Layer_1" xmlns="http://www.w3.org/2000/svg" xmlns:xlink="http://www.w3.org/1999/xlink" x="0px" y="0px"
	 viewBox="0 0 110.1 80.5" style="enable-background:new 0 0 110.1 80.5;" xml:space="preserve">
<style type="text/css">
	.st0{fill-rule:evenodd;clip-rule:evenodd;fill:#3BAC5C;}
	.st1{fill:#0D3349;}
</style>
<path id="path0_1_" class="st0" d="M56.9,21c-0.2,0-0.9,0.1-1.5,0.1c-1.1,0.1-2.8,0.3-3,0.4c-0.1,0-0.4,0.1-0.7,0.1
	c-2.2,0.3-4.8,1.2-6.3,2.1c-0.3,0.2-0.6,0.3-0.7,0.3c-0.3,0.1-2.6,1.7-3.4,2.4c-6.2,5.1-9.4,13-8.1,19.5c0.2,0.8,0.2,0.8,0.8,0.4
	c0.9-0.7,1.7-1.2,2.8-1.8c0.6-0.4,3.4-1.7,3.6-1.7c0,0,0.2-0.1,0.5-0.2c2.5-1.1,9.6-3.6,13.2-4.5c0.1,0,0.8-0.2,1.4-0.4
	c3.4-0.9,4-1.1,4-0.9c0,0-0.2,0.1-0.4,0.2c-1.2,0.4-4.4,1.7-4.5,1.8c0,0-0.1,0.1-0.2,0.1s-0.3,0.1-0.6,0.2c-0.3,0.1-0.6,0.2-0.6,0.2
	s-0.3,0.1-0.7,0.3c-0.3,0.2-0.6,0.3-0.7,0.3c0,0-0.4,0.1-0.7,0.3c-0.4,0.2-0.7,0.3-0.8,0.3c-0.3,0-8.3,4.2-10.8,5.7
	c-0.6,0.3-1.1,0.6-1.1,0.6s-0.8,0.5-3.3,2.1c-2.8,1.8-7.4,5.1-10.3,7.3c-0.3,0.3-0.7,0.6-0.9,0.7c-2.5,1.9-2.8,2.3-1.4,1.5
	c3.2-1.7,6.7-3.3,9.2-4.3c1.6-0.6,3.2-1.1,4.3-1.2l0.5-0.1l1.2,1.2c3,3,6.2,4.5,11,5.2c1.1,0.2,4.8,0.1,5.6,0c0.3,0,0.8-0.1,1.2-0.2
	c0.4-0.1,0.9-0.2,1-0.2s0.5-0.1,0.8-0.2c5.5-1.4,10.2-4.8,14.4-10.4c0.1-0.1,0.5-0.6,0.8-1.1c0.4-0.5,0.7-1,0.8-1.1
	c0.1-0.1,0.3-0.5,0.5-0.7C76,42.2,79,37.2,81,33.5c0.2-0.4,0.6-1.1,0.8-1.4c0.2-0.4,0.9-1.7,1.5-3s1.2-2.3,1.2-2.4
	c0.2-0.3,0.1-0.4-0.7-0.7c-0.1,0-0.7-0.2-1.4-0.5C81.7,25.3,81,25,80.7,25c-1.1-0.4-2.9-0.9-5.1-1.5c-1.9-0.5-2.4-0.6-3.1-0.8
	c-0.4-0.1-0.8-0.2-0.9-0.2s-0.4-0.1-0.7-0.2c-0.8-0.1-1.1-0.2-1.8-0.4c-2.7-0.6-5-0.8-8.9-0.8C58.6,21,57,21,56.9,21"/>
<g>
	<path class="st1" d="M20.3,2.3c0,0.7-0.6,2.2-1.7,4.5s-1.9,4.1-2.5,5.5c-2.2,5.2-3.8,10-4.8,14.4c-0.9,4.3-1.4,8.9-1.4,13.5
		c0,4.3,0.4,8.5,1.2,12.5s2,8.1,3.6,12.1c0.8,2.2,2,4.7,3.4,7.7c1.4,2.9,2.1,4.8,2.1,5.5s-0.2,1.3-0.5,1.7c-0.3,0.4-0.7,0.6-1.3,0.6
		c-1,0-2.2-0.5-3.4-1.6c-1.3-1.1-2.7-2.8-4.3-5.2c-3.4-5.1-6-10.4-7.8-15.9c-1.7-5.5-2.6-11.3-2.6-17.4c0-5.6,0.7-10.9,2.1-15.9
		c1.4-5.1,3.6-10,6.5-14.7c2-3.2,3.8-5.5,5.4-7.1c1.6-1.6,3-2.4,4.3-2.4c0.5,0,0.9,0.2,1.3,0.6C20.1,1.1,20.3,1.7,20.3,2.3z"/>
</g>
<g>
	<path class="st1" d="M89.9,77.9c0-0.7,0.6-2.1,1.7-4.4s2-4.1,2.6-5.4c2.2-5.3,3.8-10.1,4.7-14.4c1-4.4,1.4-8.9,1.4-13.5
		c0-4.2-0.4-8.4-1.2-12.4c-0.8-4.1-2-8.1-3.7-12.2c-0.9-2.2-2-4.7-3.4-7.7c-1.4-2.9-2.1-4.8-2.1-5.5s0.2-1.2,0.5-1.6
		c0.3-0.5,0.7-0.7,1.3-0.7c1.1,0,2.2,0.5,3.5,1.6c1.2,1.1,2.7,2.8,4.3,5.1c3.5,5,6.2,10.3,7.9,15.9s2.6,11.4,2.6,17.5
		c0,5.6-0.7,10.9-2.2,16s-3.7,10-6.6,14.7c-2,3.2-3.8,5.6-5.4,7.1c-1.5,1.5-2.9,2.3-4.2,2.3c-0.5,0-1-0.2-1.3-0.6
		C90,79.2,89.9,78.6,89.9,77.9z"/>
</g>
</svg>
