<?xml version="1.0"?>
<svg width="300" height="185" xmlns="http://www.w3.org/2000/svg" xmlns:svg="http://www.w3.org/2000/svg" preserveAspectRatio="xMidYMid meet">
 <g class="layer">
  <title>Layer 1</title>
  <path d="m26.650002,19.299985c-21.400002,45.200004 -21.450002,97.200009 -0.15,147.200013l4.3,10.000001l4.6,0.3c5.05,0.35 5.45,-0.25 3.15,-4.7c-19.200002,-37.100003 -20.550002,-105.150009 -2.95,-149.750013c5.3,-13.500001 5.35,-12.350001 -0.1,-12.350001l-4.5,0l-4.35,9.300001z" id="svg_2"/>
  <path d="m261.000023,10.849984c0,0.5 1.55,5 3.45,9.950001c17.450002,45.200004 17.700002,100.750009 0.55,144.550013c-4.9,12.500001 -4.9,11.650001 0.35,11.650001l4.35,0l4.55,-9.750001c21.850002,-46.950004 21.050002,-102.750009 -2.15,-151.250014c-2.5,-5.2 -11.100001,-9.200001 -11.100001,-5.15z" id="svg_3"/>
  <path d="m146.500013,31.949986c-34.850003,5.5 -61.550006,34.600003 -61.500005,67.000006c0.05,8.350001 1,12.450001 2.4,10.200001c2.85,-4.6 30.050003,-16.200001 56.800005,-24.200002c23.300002,-6.950001 31.050003,-7.700001 15.300001,-1.5c-34.150003,13.500001 -62.750006,29.650003 -95.250009,53.800005c-10.800001,8.050001 -11.200001,8.600001 -3.5,5.1c16.100001,-7.300001 21.600002,-9.500001 27.550002,-11.050001l6.500001,-1.7l6.100001,5.650001c26.300002,24.350002 70.400006,18.650002 97.950009,-12.550001c13.650001,-15.500001 46.150004,-68.500006 46.150004,-75.250007c0,-1.6 -26.200002,-9.500001 -46.500004,-14.100001c-7.950001,-1.75 -43.650004,-2.75 -52.000005,-1.4z" fill="#3aac59" id="svg_4"/>
 </g>
</svg>
